<?xml version="1.0" standalone="no"?>
<!DOCTYPE svg PUBLIC "-//W3C//DTD SVG 20010904//EN"
 "http://www.w3.org/TR/2001/REC-SVG-20010904/DTD/svg10.dtd">
<svg version="1.0" xmlns="http://www.w3.org/2000/svg"
 width="400.000000pt" height="400.000000pt" viewBox="0 0 400.000000 400.000000"
 preserveAspectRatio="xMidYMid meet">
<metadata>
Created by potrace 1.14, written by Peter Selinger 2001-2017
</metadata>
<g transform="translate(0.000000,400.000000) scale(0.100000,-0.100000)"
fill="#000000" stroke="none">
<path d="M2618 3018 c-4 -11 -3 -623 1 -639 0 -3 152 -5 336 -5 l335 0 1 50
c0 69 0 488 0 554 l-1 52 -334 0 c-258 0 -335 -3 -338 -12z"/>
<path d="M2210 2328 c0 -5 17 -8 38 -9 20 -1 48 -2 62 -4 14 -1 70 -5 125 -9
55 -4 107 -9 116 -12 8 -2 134 -126 280 -275 145 -150 285 -292 311 -317 l48
-45 400 -1 400 -1 0 340 0 340 -890 0 c-490 0 -890 -3 -890 -7z"/>
<path d="M1909 2324 c0 -5 -2 -155 -2 -332 -2 -282 0 -325 13 -332 9 -5 53
-11 99 -14 46 -4 102 -8 125 -11 63 -6 152 -14 251 -20 50 -4 113 -9 140 -11
101 -9 645 -15 645 -7 -1 12 -645 671 -659 674 -9 2 -57 6 -176 14 -60 4 -118
9 -127 10 -9 2 -48 7 -85 10 -37 4 -79 8 -93 11 -68 12 -130 15 -131 8z"/>
<path d="M121 2297 c-52 -24 -97 -75 -112 -128 -25 -82 22 -198 95 -236 16 -8
59 -24 94 -34 107 -30 140 -64 119 -122 -17 -49 -40 -56 -172 -55 l-120 1 -3
-51 -3 -52 154 0 c167 0 201 7 259 52 79 62 105 192 57 292 -27 57 -59 81
-162 118 -95 34 -107 42 -107 77 0 55 29 69 143 67 49 -1 90 1 92 4 2 3 5 23
6 45 l4 40 -152 1 c-129 0 -157 -3 -192 -19z"/>
<path d="M583 2304 c-2 -6 -3 -125 -1 -265 3 -249 4 -256 28 -303 58 -113 217
-168 349 -121 83 29 149 98 165 173 13 55 10 513 -2 521 -10 6 -22 6 -77 2 -7
-1 -11 -87 -11 -259 -1 -291 -2 -296 -76 -326 -53 -22 -103 -10 -143 34 -19
21 -20 40 -25 288 l-5 266 -99 1 c-63 0 -100 -4 -103 -11z"/>
<path d="M1343 2309 c-157 -33 -209 -247 -85 -351 32 -27 56 -37 147 -64 102
-31 135 -91 80 -146 -24 -24 -31 -26 -138 -26 -61 0 -119 -1 -127 -1 -12 -1
-15 -13 -15 -51 l0 -50 160 0 c134 0 167 3 200 19 90 40 140 119 138 215 -3
121 -50 180 -176 221 -91 30 -132 63 -121 98 13 45 28 51 136 53 l103 1 3 45
3 45 -138 0 c-76 -1 -153 -4 -170 -8z"/>
<path d="M3249 1596 c18 -19 23 -38 26 -107 2 -46 7 -109 9 -139 3 -30 8 -89
12 -130 3 -41 8 -77 10 -79 2 -2 4 104 4 237 l0 242 -42 0 -41 0 22 -24z"/>
<path d="M2566 1551 c-14 -22 22 -463 44 -540 5 -17 8 -35 7 -39 -1 -4 150 -8
336 -10 l338 -2 -6 42 c-3 24 -8 54 -10 68 -2 14 -7 54 -10 90 -3 36 -8 81
-10 100 -2 19 -6 67 -10 105 -8 103 -17 179 -21 186 -2 3 -20 5 -41 3 -66 -6
-496 -5 -555 1 -31 3 -59 1 -62 -4z"/>
</g>
</svg>
